<?xml version="1.0" encoding="UTF-8"?>
<svg width="1800" height="1800" version="1.1" viewBox="0 0 1800 1800" xmlns="http://www.w3.org/2000/svg">
 <desc>openxrif.DXF - scale = 25.400000, origin = (0.000000, 0.000000), method = file</desc>
 <g transform="translate(-54.507 641.48)">
  <g transform="translate(90.506 -5.4277e-5)">
   <path class="UnoptimicedTransforms" d="m115.75-79.257v675.55c2e-5 58.306 31.106 112.18 81.6 141.34l585.05 337.78c50.494 29.152 112.71 29.152 163.2 0l585.05-337.78c50.492-29.153 81.598-83.029 81.6-141.34v-675.55c0-58.306-31.108-112.18-81.6-141.34l-585.05-337.78c-50.494-29.153-112.71-29.153-163.2 0l-585.05 337.78c-50.494 29.153-81.6 83.03-81.6 141.34z" fill="#123928"/>
   <path class="UnoptimicedTransforms" d="m211.75 540.87c-0.5458 57.211 31.781 113.2 81.6 141.34 163.02 94.117 326.03 188.23 489.05 282.35 49.273 29.078 113.93 29.078 163.2 0 163.02-94.117 326.03-188.23 489.05-282.35 49.866-28.243 82.073-84.022 81.6-141.34v-564.7c0.4899-57.275-31.751-113.12-81.6-141.34-163.02-94.117-326.03-188.23-489.05-282.35-49.273-29.078-113.93-29.078-163.2 0-163.02 94.117-326.03 188.23-489.05 282.35-49.819 28.132-82.146 84.125-81.6 141.34z" fill="#20b2aa"/>
   <path d="m1223.3 258.52 58.258-102.16c52.769 9.3455 104.63-20.559 122.97-70.906 18.343-50.346-2.1342-106.58-48.545-133.38-46.411-26.795-105.35-16.408-139.78 24.65-34.429 41.059-34.395 100.93 0.084 141.95l-58.251 102.16h-96l-30.409-88.302c-6.7333-19.559-22.101-34.926-41.659-41.661l-88.302-30.405v-158.98c50.374-18.291 80.336-70.12 71.049-122.89-9.287-52.772-55.139-91.238-108.73-91.238s-99.442 38.466-108.73 91.238c-9.2871 52.773 20.675 104.6 71.049 122.89v158.98l-88.302 30.405c-19.559 6.7346-34.926 22.102-41.661 41.661l-30.404 88.302h-96l-58.254-102.16c34.48-41.028 34.513-100.89 0.0844-141.95-34.429-41.059-93.37-51.445-139.78-24.65-46.411 26.795-66.887 83.032-48.545 133.38 18.343 50.346 70.205 80.251 122.98 70.905l58.254 102.16-58.254 102.16c-52.771-9.3458-104.63 20.559-122.98 70.905-18.343 50.346 2.1341 106.58 48.545 133.38s105.35 16.408 139.78-24.65c34.429-41.059 34.395-100.93-0.0844-141.95l58.254-102.16h96l30.404 88.302c6.7348 19.559 22.102 34.926 41.661 41.66l88.302 30.405v158.98c-50.374 18.291-80.336 70.12-71.049 122.89 9.287 52.772 55.139 91.238 108.73 91.238s99.442-38.466 108.73-91.238c9.2871-52.773-20.675-104.6-71.049-122.89v-158.98l88.302-30.405c19.559-6.7345 34.926-22.102 41.659-41.66l30.409-88.302h96l58.251 102.16c-34.479 41.027-34.513 100.89-0.084 141.95 34.428 41.059 93.37 51.445 139.78 24.65 46.411-26.795 66.888-83.032 48.545-133.38-18.343-50.346-70.205-80.251-122.97-70.905z" fill="#123928"/>
   <path d="m912 719.32a48 48 0 0 0-96 0 48 48 0 0 0 96 0zm436.82-249.93a48 48 0 0 0-96 0 48 48 0 0 0 96 0zm-376.82-210.87a108 108 0 0 0-216 0 108 108 0 0 0 216 0zm-60-460.8a48 48 0 0 0-96 0 48 48 0 0 0 96 0zm-436.82 249.93a48 48 0 0 0-96 0 48 48 0 0 0 96 0zm873.64 0a48 48 0 0 0-96 0 48 48 0 0 0 96 0zm-873.64 421.73a48 48 0 0 0-96 0 48 48 0 0 0 96 0z" fill="#54eba9"/>
  </g>
 </g>
</svg>
